<svg width="21" height="18" viewBox="0 0 21 18" fill="none" xmlns="http://www.w3.org/2000/svg">
<path fill-rule="evenodd" clip-rule="evenodd" d="M5.75 16.5C5.75 15.6716 6.42157 15 7.25 15C8.07843 15 8.75 15.6716 8.75 16.5C8.75 17.3284 8.07843 18 7.25 18C6.42157 18 5.75 17.3284 5.75 16.5Z" fill="#081503"/>
<path fill-rule="evenodd" clip-rule="evenodd" d="M16.25 16.5C16.25 15.6716 16.9216 15 17.75 15C18.5784 15 19.25 15.6716 19.25 16.5C19.25 17.3284 18.5784 18 17.75 18C16.9216 18 16.25 17.3284 16.25 16.5Z" fill="#081503"/>
<path fill-rule="evenodd" clip-rule="evenodd" d="M0.5 0.75C0.5 0.335786 0.835786 0 1.25 0H4.25C4.61393 0 4.92534 0.261268 4.98859 0.619661L7.12924 12.75H18.5C18.9142 12.75 19.25 13.0858 19.25 13.5C19.25 13.9142 18.9142 14.25 18.5 14.25H6.5C6.13607 14.25 5.82466 13.9887 5.76141 13.6303L3.62076 1.5H1.25C0.835786 1.5 0.5 1.16421 0.5 0.75Z" fill="#081503"/>
<path fill-rule="evenodd" clip-rule="evenodd" d="M19.5425 2.25C19.7088 2.24996 19.8731 2.28681 20.0235 2.3579C20.1741 2.42907 20.307 2.53277 20.4126 2.66152C20.5182 2.79027 20.5939 2.94086 20.6342 3.10243C20.6746 3.26396 20.6786 3.43243 20.6459 3.59568L19.2959 10.3457C19.2448 10.6008 19.1069 10.8304 18.9056 10.9953C18.7044 11.1602 18.4522 11.2502 18.192 11.25H6.5C6.08579 11.25 5.75 10.9142 5.75 10.5C5.75 10.0858 6.08579 9.75 6.5 9.75H17.8853L17.8251 10.0514C17.8421 9.96636 17.888 9.88985 17.9551 9.8349C18.0221 9.78005 18.106 9.75006 18.1925 9.75H17.8853L19.0853 3.75H19.5425C19.4872 3.74996 19.4325 3.73768 19.3825 3.71403C19.3323 3.69031 19.288 3.65574 19.2528 3.61283C19.2176 3.56991 19.1924 3.51972 19.1789 3.46586C19.1655 3.41204 19.1642 3.3559 19.175 3.30151M19.5425 2.25H5C4.58579 2.25 4.25 2.58579 4.25 3C4.25 3.41421 4.58579 3.75 5 3.75H19.0853L19.175 3.30151" fill="#081503"/>
</svg>
